# xmcd
#
# Track frame offsets:
# 150
# 16082
# 34249
# 48997
# 65473
# 82770
# 100110
# 117721
# 136441
# 157735
# 173990
# 195182
#
# Disc length: 3032 seconds
#
#
# Revision: 0
# Processed by: cddbd v1.5.1PL0 Copyright (c) Steve Scherf et al.
# Submitted via: FreeRIP 2.942 
#
DISCID=8e0bd60c
DTITLE=Marshall Dyllon - Enjoy the Ride
DYEAR=2000
DGENRE=Country
TTITLE0=God Bless This Town
TTITLE1=All I Wanna Do
TTITLE2=She's Like a Child
TTITLE3=Live It Up
TTITLE4=You
TTITLE5=Closer to Heaven
TTITLE6=Is She Gone?
TTITLE7=I'll Never Miss That Girl
TTITLE8=We Got Love
TTITLE9=Special Girl
TTITLE10=So Bad
TTITLE11=Enjoy the Ride
EXTD=
EXTT0=
EXTT1=
EXTT2=
EXTT3=
EXTT4=
EXTT5=
EXTT6=
EXTT7=
EXTT8=
EXTT9=
EXTT10=
EXTT11=
PLAYORDER=
